<?xml version="1.0" encoding="UTF-8"?>
<!DOCTYPE svg PUBLIC "-//W3C//DTD SVG 1.1//EN" "http://www.w3.org/Graphics/SVG/1.1/DTD/svg11.dtd">
<svg version="1.1" xmlns="http://www.w3.org/2000/svg" xmlns:xlink="http://www.w3.org/1999/xlink" x="0" y="0" width="638.11" height="546.17" viewBox="0, 0, 638.11, 546.17">
  <g id="Layer_1">
    <g>
      <g>
        <g>
          <g>
            <g>
              <path d="M337.771,162.45 C337.782,163.663 337.101,164.788 335.987,165.398 C334.874,166.007 333.499,166.007 332.385,165.398 C331.272,164.788 330.591,163.663 330.601,162.45 C330.591,161.237 331.272,160.112 332.385,159.502 C333.499,158.893 334.874,158.893 335.987,159.502 C337.101,160.112 337.782,161.237 337.771,162.45 z" fill="#FFFFFF"/>
              <path d="M337.771,162.45 C337.782,163.663 337.101,164.788 335.987,165.398 C334.874,166.007 333.499,166.007 332.385,165.398 C331.272,164.788 330.591,163.663 330.601,162.45 C330.591,161.237 331.272,160.112 332.385,159.502 C333.499,158.893 334.874,158.893 335.987,159.502 C337.101,160.112 337.782,161.237 337.771,162.45 z" fill-opacity="0" stroke="#000000" stroke-width="1.485" stroke-linecap="round" stroke-linejoin="round"/>
            </g>
            <g>
              <path d="M510.738,119.43 C509.982,119.447 509.214,119.501 508.454,119.564 C503.681,119.958 499.077,121.284 494.659,123.447 C494.619,123.465 494.57,123.505 494.529,123.524 C494.526,123.525 494.514,123.523 494.511,123.524 C494.486,123.536 494.461,123.55 494.436,123.562 C485.002,127.446 477.736,134.169 472.917,142.788 C455.367,166.878 444.743,207.149 446.571,251.758 C449.436,321.666 481.807,375.908 518.833,372.858 C553.283,370.012 579.684,318.548 580.883,255.088 C581.292,254.772 581.695,254.442 582.09,254.113 L582.554,255.012 C582.852,256.545 583.13,257.338 583.409,257.613 C583.412,257.617 583.424,257.629 583.427,257.632 C583.431,257.635 583.442,257.649 583.446,257.652 C583.449,257.654 583.461,257.668 583.464,257.671 C583.471,257.675 583.495,257.686 583.501,257.69 C583.512,257.695 583.528,257.705 583.539,257.709 C583.542,257.71 583.554,257.708 583.557,257.709 C583.564,257.711 583.587,257.727 583.594,257.728 C583.598,257.729 583.609,257.728 583.613,257.728 C583.616,257.728 583.628,257.728 583.631,257.728 C583.638,257.728 583.661,257.729 583.668,257.728 C583.672,257.728 583.683,257.729 583.687,257.728 C583.701,257.725 583.728,257.714 583.743,257.709 C583.757,257.704 583.784,257.697 583.798,257.69 C583.802,257.688 583.813,257.673 583.817,257.671 C584.312,257.379 584.909,255.992 585.804,254.457 C586.974,252.447 587.234,246.269 591.207,248.316 C592.934,249.206 596.61,252.837 596.61,247.761 C596.61,246.119 596.938,236.483 597.148,236.072 C598.462,236.343 600.397,237.624 600.397,233.834 C600.397,230.314 598.67,227.162 599.32,223.81 C600.329,218.615 603.872,221.733 604.612,221.82 C604.615,221.821 604.627,221.82 604.631,221.82 C604.634,221.82 604.646,221.821 604.649,221.82 C604.652,221.82 604.665,221.821 604.668,221.82 C604.67,221.82 604.684,221.802 604.686,221.801 C604.688,221.8 604.703,221.802 604.705,221.801 C604.706,221.8 604.722,221.784 604.723,221.782 C604.725,221.78 604.722,221.765 604.723,221.763 C604.725,221.758 604.74,221.749 604.742,221.744 C604.742,221.741 604.741,221.728 604.742,221.725 C604.742,221.722 604.742,221.709 604.742,221.706 C604.742,221.702 604.742,221.69 604.742,221.687 C604.741,221.679 604.743,221.657 604.742,221.648 C604.74,221.635 604.727,221.606 604.723,221.591 C604.079,218.935 603.719,213.952 602.57,210.993 C601.897,209.261 600.397,204.722 600.397,202.097 C600.397,198.588 597.148,195.991 597.148,193.182 C597.148,193.167 597.166,193.139 597.167,193.125 C597.168,193.116 597.165,193.095 597.167,193.087 C597.168,193.078 597.165,193.056 597.167,193.049 C597.169,193.041 597.183,193.017 597.185,193.01 C597.189,193 597.199,192.981 597.204,192.972 C597.207,192.966 597.218,192.958 597.222,192.953 C597.231,192.943 597.249,192.923 597.259,192.915 C597.265,192.911 597.272,192.899 597.278,192.896 C597.287,192.89 597.306,192.881 597.315,192.876 C597.318,192.875 597.33,192.878 597.334,192.876 C597.337,192.875 597.349,192.858 597.352,192.857 C597.359,192.855 597.382,192.859 597.389,192.857 C598.069,192.752 600.033,194.149 600.713,194.043 C600.717,194.043 600.728,194.044 600.732,194.043 C600.735,194.042 600.747,194.044 600.75,194.043 C600.757,194.041 600.781,194.027 600.787,194.024 C600.79,194.023 600.803,194.026 600.806,194.024 C600.809,194.023 600.821,194.007 600.824,194.005 C600.832,193.999 600.854,193.993 600.861,193.986 C600.868,193.979 600.874,193.956 600.88,193.948 C600.882,193.945 600.897,193.932 600.899,193.929 C600.904,193.919 600.913,193.901 600.917,193.89 C600.919,193.887 600.916,193.875 600.917,193.871 C600.918,193.867 600.935,193.856 600.936,193.852 C600.938,193.84 600.934,193.808 600.936,193.795 C600.937,193.786 600.935,193.766 600.936,193.756 C600.936,193.751 600.936,193.742 600.936,193.737 C600.936,191.26 599.904,188.89 599.32,186.487 C598.593,183.488 596.405,181.034 594.994,178.127 C592.798,173.601 590.29,169.667 590.13,169.25 C590.129,169.247 590.13,169.234 590.13,169.231 C591.923,169.231 594.722,170.473 595.57,170.035 C595.592,170.022 595.625,169.992 595.644,169.977 C595.648,169.974 595.659,169.961 595.663,169.958 C595.666,169.955 595.678,169.942 595.681,169.939 C595.685,169.936 595.697,169.924 595.7,169.92 C595.703,169.916 595.716,169.905 595.718,169.901 C595.743,169.866 595.778,169.812 595.793,169.767 C595.802,169.736 595.807,169.687 595.811,169.652 C595.83,169.426 595.743,169.092 595.533,168.657 C594.121,165.748 593.365,163.65 591.207,161.426 C589.403,159.568 587.353,157.987 585.804,155.859 C584.029,153.421 581.339,148.855 578.228,148.054 C577.508,147.868 576.739,147.842 576.075,147.499 C575.347,147.125 575.004,146.835 574.923,146.619 C574.921,146.61 574.907,146.589 574.905,146.581 C574.903,146.573 574.906,146.551 574.905,146.543 C574.904,146.535 574.904,146.512 574.905,146.504 C574.905,146.501 574.904,146.489 574.905,146.485 C574.908,146.47 574.917,146.442 574.923,146.428 C574.932,146.41 574.947,146.387 574.961,146.37 C574.963,146.367 574.976,146.354 574.979,146.351 C574.982,146.348 574.994,146.335 574.998,146.332 C575.015,146.317 575.051,146.289 575.072,146.275 C575.781,145.838 578.422,145.959 578.748,145.854 C578.751,145.853 578.764,145.855 578.767,145.854 C578.768,145.853 578.766,145.836 578.767,145.835 C578.306,145.202 574.738,141.234 570.672,139.139 C569.762,138.671 560.341,136.981 559.383,136.442 C559.375,136.437 559.352,136.427 559.345,136.423 C559.343,136.421 559.329,136.406 559.327,136.404 C559.325,136.402 559.31,136.386 559.308,136.384 C559.308,136.383 559.308,136.367 559.308,136.365 C559.593,135.926 560.287,135.494 560.422,135.045 C560.425,135.036 560.439,135.016 560.441,135.007 C560.443,134.998 560.44,134.978 560.441,134.969 C560.442,134.955 560.44,134.925 560.441,134.911 C560.441,134.902 560.441,134.882 560.441,134.873 C560.44,134.859 560.443,134.829 560.441,134.816 C560.439,134.807 560.425,134.787 560.422,134.777 C560.418,134.764 560.409,134.734 560.404,134.72 C560.4,134.711 560.39,134.691 560.385,134.682 C559.415,132.682 557.461,131.224 555.521,130.224 C551.854,128.336 548.692,126.791 544.715,125.767 C543.466,125.445 538.48,124.521 537.789,123.969 C537.786,123.966 537.774,123.953 537.771,123.95 C537.768,123.947 537.755,123.934 537.752,123.931 C537.75,123.928 537.736,123.914 537.734,123.911 C537.732,123.908 537.716,123.895 537.715,123.892 C537.714,123.889 537.716,123.876 537.715,123.873 C537.715,123.87 537.715,123.857 537.715,123.854 C537.715,123.851 537.714,123.838 537.715,123.835 C537.716,123.832 537.732,123.818 537.734,123.816 C537.741,123.805 537.757,123.788 537.771,123.778 C537.774,123.775 537.785,123.761 537.789,123.758 C538.029,123.626 538.817,123.548 540.389,123.548 C541.901,123.548 542.64,123.487 542.839,123.395 C542.843,123.393 542.855,123.377 542.858,123.376 C542.861,123.374 542.874,123.378 542.877,123.376 C542.88,123.372 542.893,123.36 542.895,123.357 C542.896,123.355 542.895,123.339 542.895,123.338 C542.895,123.336 542.896,123.32 542.895,123.318 C542.894,123.316 542.878,123.301 542.877,123.299 C542.874,123.297 542.86,123.282 542.858,123.28 C542.85,123.274 542.832,123.267 542.821,123.261 C542.145,122.882 537.204,122.211 535.524,121.864 C531.587,121.053 527.643,119.645 523.623,119.645 L515.194,119.645 C513.82,119.497 512.441,119.42 511.053,119.435 C510.945,119.436 510.846,119.432 510.738,119.435 z" fill="#FFFFFF"/>
              <path d="M510.738,119.43 C509.982,119.447 509.214,119.501 508.454,119.564 C503.681,119.958 499.077,121.284 494.659,123.447 C494.619,123.465 494.57,123.505 494.529,123.524 C494.526,123.525 494.514,123.523 494.511,123.524 C494.486,123.536 494.461,123.55 494.436,123.562 C485.002,127.446 477.736,134.169 472.917,142.788 C455.367,166.878 444.743,207.149 446.571,251.758 C449.436,321.666 481.807,375.908 518.833,372.858 C553.283,370.012 579.684,318.548 580.883,255.088 C581.292,254.772 581.695,254.442 582.09,254.113 L582.554,255.012 C582.852,256.545 583.13,257.338 583.409,257.613 C583.412,257.617 583.424,257.629 583.427,257.632 C583.431,257.635 583.442,257.649 583.446,257.652 C583.449,257.654 583.461,257.668 583.464,257.671 C583.471,257.675 583.495,257.686 583.501,257.69 C583.512,257.695 583.528,257.705 583.539,257.709 C583.542,257.71 583.554,257.708 583.557,257.709 C583.564,257.711 583.587,257.727 583.594,257.728 C583.598,257.729 583.609,257.728 583.613,257.728 C583.616,257.728 583.628,257.728 583.631,257.728 C583.638,257.728 583.661,257.729 583.668,257.728 C583.672,257.728 583.683,257.729 583.687,257.728 C583.701,257.725 583.728,257.714 583.743,257.709 C583.757,257.704 583.784,257.697 583.798,257.69 C583.802,257.688 583.813,257.673 583.817,257.671 C584.312,257.379 584.909,255.992 585.804,254.457 C586.974,252.447 587.234,246.269 591.207,248.316 C592.934,249.206 596.61,252.837 596.61,247.761 C596.61,246.119 596.938,236.483 597.148,236.072 C598.462,236.343 600.397,237.624 600.397,233.834 C600.397,230.314 598.67,227.162 599.32,223.81 C600.329,218.615 603.872,221.733 604.612,221.82 C604.615,221.821 604.627,221.82 604.631,221.82 C604.634,221.82 604.646,221.821 604.649,221.82 C604.652,221.82 604.665,221.821 604.668,221.82 C604.67,221.82 604.684,221.802 604.686,221.801 C604.688,221.8 604.703,221.802 604.705,221.801 C604.706,221.8 604.722,221.784 604.723,221.782 C604.725,221.78 604.722,221.765 604.723,221.763 C604.725,221.758 604.74,221.749 604.742,221.744 C604.742,221.741 604.741,221.728 604.742,221.725 C604.742,221.722 604.742,221.709 604.742,221.706 C604.742,221.702 604.742,221.69 604.742,221.687 C604.741,221.679 604.743,221.657 604.742,221.648 C604.74,221.635 604.727,221.606 604.723,221.591 C604.079,218.935 603.719,213.952 602.57,210.993 C601.897,209.261 600.397,204.722 600.397,202.097 C600.397,198.588 597.148,195.991 597.148,193.182 C597.148,193.167 597.166,193.139 597.167,193.125 C597.168,193.116 597.165,193.095 597.167,193.087 C597.168,193.078 597.165,193.056 597.167,193.049 C597.169,193.041 597.183,193.017 597.185,193.01 C597.189,193 597.199,192.981 597.204,192.972 C597.207,192.966 597.218,192.958 597.222,192.953 C597.231,192.943 597.249,192.923 597.259,192.915 C597.265,192.911 597.272,192.899 597.278,192.896 C597.287,192.89 597.306,192.881 597.315,192.876 C597.318,192.875 597.33,192.878 597.334,192.876 C597.337,192.875 597.349,192.858 597.352,192.857 C597.359,192.855 597.382,192.859 597.389,192.857 C598.069,192.752 600.033,194.149 600.713,194.043 C600.717,194.043 600.728,194.044 600.732,194.043 C600.735,194.042 600.747,194.044 600.75,194.043 C600.757,194.041 600.781,194.027 600.787,194.024 C600.79,194.023 600.803,194.026 600.806,194.024 C600.809,194.023 600.821,194.007 600.824,194.005 C600.832,193.999 600.854,193.993 600.861,193.986 C600.868,193.979 600.874,193.956 600.88,193.948 C600.882,193.945 600.897,193.932 600.899,193.929 C600.904,193.919 600.913,193.901 600.917,193.89 C600.919,193.887 600.916,193.875 600.917,193.871 C600.918,193.867 600.935,193.856 600.936,193.852 C600.938,193.84 600.934,193.808 600.936,193.795 C600.937,193.786 600.935,193.766 600.936,193.756 C600.936,193.751 600.936,193.742 600.936,193.737 C600.936,191.26 599.904,188.89 599.32,186.487 C598.593,183.488 596.405,181.034 594.994,178.127 C592.798,173.601 590.29,169.667 590.13,169.25 C590.129,169.247 590.13,169.234 590.13,169.231 C591.923,169.231 594.722,170.473 595.57,170.035 C595.592,170.022 595.625,169.992 595.644,169.977 C595.648,169.974 595.659,169.961 595.663,169.958 C595.666,169.955 595.678,169.942 595.681,169.939 C595.685,169.936 595.697,169.924 595.7,169.92 C595.703,169.916 595.716,169.905 595.718,169.901 C595.743,169.866 595.778,169.812 595.793,169.767 C595.802,169.736 595.807,169.687 595.811,169.652 C595.83,169.426 595.743,169.092 595.533,168.657 C594.121,165.748 593.365,163.65 591.207,161.426 C589.403,159.568 587.353,157.987 585.804,155.859 C584.029,153.421 581.339,148.855 578.228,148.054 C577.508,147.868 576.739,147.842 576.075,147.499 C575.347,147.125 575.004,146.835 574.923,146.619 C574.921,146.61 574.907,146.589 574.905,146.581 C574.903,146.573 574.906,146.551 574.905,146.543 C574.904,146.535 574.904,146.512 574.905,146.504 C574.905,146.501 574.904,146.489 574.905,146.485 C574.908,146.47 574.917,146.442 574.923,146.428 C574.932,146.41 574.947,146.387 574.961,146.37 C574.963,146.367 574.976,146.354 574.979,146.351 C574.982,146.348 574.994,146.335 574.998,146.332 C575.015,146.317 575.051,146.289 575.072,146.275 C575.781,145.838 578.422,145.959 578.748,145.854 C578.751,145.853 578.764,145.855 578.767,145.854 C578.768,145.853 578.766,145.836 578.767,145.835 C578.306,145.202 574.738,141.234 570.672,139.139 C569.762,138.671 560.341,136.981 559.383,136.442 C559.375,136.437 559.352,136.427 559.345,136.423 C559.343,136.421 559.329,136.406 559.327,136.404 C559.325,136.402 559.31,136.386 559.308,136.384 C559.308,136.383 559.308,136.367 559.308,136.365 C559.593,135.926 560.287,135.494 560.422,135.045 C560.425,135.036 560.439,135.016 560.441,135.007 C560.443,134.998 560.44,134.978 560.441,134.969 C560.442,134.955 560.44,134.925 560.441,134.911 C560.441,134.902 560.441,134.882 560.441,134.873 C560.44,134.859 560.443,134.829 560.441,134.816 C560.439,134.807 560.425,134.787 560.422,134.777 C560.418,134.764 560.409,134.734 560.404,134.72 C560.4,134.711 560.39,134.691 560.385,134.682 C559.415,132.682 557.461,131.224 555.521,130.224 C551.854,128.336 548.692,126.791 544.715,125.767 C543.466,125.445 538.48,124.521 537.789,123.969 C537.786,123.966 537.774,123.953 537.771,123.95 C537.768,123.947 537.755,123.934 537.752,123.931 C537.75,123.928 537.736,123.914 537.734,123.911 C537.732,123.908 537.716,123.895 537.715,123.892 C537.714,123.889 537.716,123.876 537.715,123.873 C537.715,123.87 537.715,123.857 537.715,123.854 C537.715,123.851 537.714,123.838 537.715,123.835 C537.716,123.832 537.732,123.818 537.734,123.816 C537.741,123.805 537.757,123.788 537.771,123.778 C537.774,123.775 537.785,123.761 537.789,123.758 C538.029,123.626 538.817,123.548 540.389,123.548 C541.901,123.548 542.64,123.487 542.839,123.395 C542.843,123.393 542.855,123.377 542.858,123.376 C542.861,123.374 542.874,123.378 542.877,123.376 C542.88,123.372 542.893,123.36 542.895,123.357 C542.896,123.355 542.895,123.339 542.895,123.338 C542.895,123.336 542.896,123.32 542.895,123.318 C542.894,123.316 542.878,123.301 542.877,123.299 C542.874,123.297 542.86,123.282 542.858,123.28 C542.85,123.274 542.832,123.267 542.821,123.261 C542.145,122.882 537.204,122.211 535.524,121.864 C531.587,121.053 527.643,119.645 523.623,119.645 L515.194,119.645 C513.82,119.497 512.441,119.42 511.053,119.435 C510.945,119.436 510.846,119.432 510.738,119.435 z" fill-opacity="0" stroke="#000000" stroke-width="2.412" stroke-linecap="round" stroke-linejoin="round"/>
            </g>
          </g>
          <g>
            <path d="M491.358,123.89 L485.305,128.048 L479.251,136.884 L474.711,145.2 L473.198,153.516 L472.189,161.832 L472.694,182.622 L474.711,204.451 L477.234,224.721 L480.765,237.715 L488.331,255.386 L497.916,275.136 L508.509,299.564 L512.04,313.078 L513.049,321.394 L513.049,330.749 L510.022,345.822 L458.065,244.992 C458.065,244.992 434.356,217.445 438.392,206.011 C442.427,194.577 462.101,162.872 462.101,162.872 L465.128,156.635 L471.685,144.681 L480.765,132.207 L491.358,123.891 z" fill="#000000"/>
            <path d="M491.358,123.89 L485.305,128.048 L479.251,136.884 L474.711,145.2 L473.198,153.516 L472.189,161.832 L472.694,182.622 L474.711,204.451 L477.234,224.721 L480.765,237.715 L488.331,255.386 L497.916,275.136 L508.509,299.564 L512.04,313.078 L513.049,321.394 L513.049,330.749 L510.022,345.822 L458.065,244.992 C458.065,244.992 434.356,217.445 438.392,206.011 C442.427,194.577 462.101,162.872 462.101,162.872 L465.128,156.635 L471.685,144.681 L480.765,132.207 L491.358,123.891 z" fill-opacity="0" stroke="#000000" stroke-width="0.603"/>
          </g>
          <g>
            <g>
              <path d="M470.357,439.407 C443.775,448.263 411.584,434.951 386.01,404.525 C360.436,374.099 345.401,331.227 346.614,292.189 C347.828,253.151 365.104,223.935 391.882,215.637 C418.464,206.78 450.654,220.093 476.228,250.518 C501.803,280.944 516.838,323.816 515.624,362.854 C514.411,401.892 497.135,431.108 470.357,439.407 z" fill="#FFFFFF"/>
              <path d="M470.357,439.407 C443.775,448.263 411.584,434.951 386.01,404.525 C360.436,374.099 345.401,331.227 346.614,292.189 C347.828,253.151 365.104,223.935 391.882,215.637 C418.464,206.78 450.654,220.093 476.228,250.518 C501.803,280.944 516.838,323.816 515.624,362.854 C514.411,401.892 497.135,431.108 470.357,439.407 z" fill-opacity="0" stroke="#000000" stroke-width="2.857" stroke-linecap="round" stroke-linejoin="round"/>
            </g>
            <g>
              <path d="M450.856,101.563 C456.877,109.039 455.38,122.577 447.511,131.802 C439.643,141.027 428.384,142.445 422.363,134.97 C416.342,127.494 417.839,113.956 425.708,104.731 C433.576,95.506 444.835,94.088 450.856,101.563 z" fill="#FFFFFF"/>
              <path d="M450.856,101.563 C456.877,109.039 455.38,122.577 447.511,131.802 C439.643,141.027 428.384,142.445 422.363,134.97 C416.342,127.494 417.839,113.956 425.708,104.731 C433.576,95.506 444.835,94.088 450.856,101.563 z" fill-opacity="0" stroke="#000000" stroke-width="2.005" stroke-linecap="round" stroke-linejoin="round"/>
            </g>
          </g>
          <g>
            <path d="M426.668,130.22 L426.988,127.316 L427.437,125.047 L428.27,121.689 L429.615,117.878 L430.896,115.428 L431.985,113.885 L433.01,112.977 L433.651,112.251 L433.779,111.525 L433.202,111.071 L432.177,111.525 L430.96,112.524 L429.423,114.611 L428.462,116.154 L427.437,118.332 L426.412,120.873 L425.643,123.232 L425.195,124.956 L424.875,126.227 L426.668,130.22 z" fill="#000000"/>
            <path d="M426.668,130.22 L426.988,127.316 L427.437,125.047 L428.27,121.689 L429.615,117.878 L430.896,115.428 L431.985,113.885 L433.01,112.977 L433.651,112.251 L433.779,111.525 L433.202,111.071 L432.177,111.525 L430.96,112.524 L429.423,114.611 L428.462,116.154 L427.437,118.332 L426.412,120.873 L425.643,123.232 L425.195,124.956 L424.875,126.227 L426.668,130.22 z" fill-opacity="0" stroke="#000000" stroke-width="0.359"/>
          </g>
          <g>
            <path d="M315.928,98.104 C309.69,103.165 308.994,114.816 314.373,124.127 C319.753,133.439 329.171,136.885 335.41,131.825 C341.648,126.764 342.344,115.114 336.965,105.802 C331.585,96.49 322.167,93.044 315.928,98.104 z" fill="#FFFFFF"/>
            <path d="M315.928,98.104 C309.69,103.165 308.994,114.816 314.373,124.127 C319.753,133.439 329.171,136.885 335.41,131.825 C341.648,126.764 342.344,115.114 336.965,105.802 C331.585,96.49 322.167,93.044 315.928,98.104 z" fill-opacity="0" stroke="#000000" stroke-width="1.778" stroke-linecap="round" stroke-linejoin="round"/>
          </g>
          <g>
            <path d="M335.638,127.39 L335.355,124.323 L334.958,121.927 L334.222,118.381 L333.033,114.356 L331.901,111.768 L330.938,110.139 L330.032,109.18 L329.465,108.414 L329.352,107.647 L329.862,107.168 L330.768,107.647 L331.844,108.701 L333.203,110.905 L334.053,112.535 L334.959,114.835 L335.865,117.518 L336.544,120.01 L336.941,121.831 L337.224,123.173 L335.638,127.39 z" fill="#000000"/>
            <path d="M335.638,127.39 L335.355,124.323 L334.958,121.927 L334.222,118.381 L333.033,114.356 L331.901,111.768 L330.938,110.139 L330.032,109.18 L329.465,108.414 L329.352,107.647 L329.862,107.168 L330.768,107.647 L331.844,108.701 L333.203,110.905 L334.053,112.535 L334.959,114.835 L335.865,117.518 L336.544,120.01 L336.941,121.831 L337.224,123.173 L335.638,127.39 z" fill-opacity="0" stroke="#000000" stroke-width="0.347"/>
          </g>
          <g>
            <path d="M462.589,422.852 C443.435,432.793 417.579,425.276 394.84,403.154 C372.1,381.033 355.965,347.701 352.561,315.816 C349.157,283.931 359.007,258.384 378.37,248.876 C397.524,238.935 423.38,246.452 446.12,268.574 C468.859,290.695 484.995,324.027 488.398,355.913 C491.802,387.798 481.952,413.345 462.589,422.852 z" fill="#FFFFFF"/>
            <path d="M462.589,422.852 C443.435,432.793 417.579,425.276 394.84,403.154 C372.1,381.033 355.965,347.701 352.561,315.816 C349.157,283.931 359.007,258.384 378.37,248.876 C397.524,238.935 423.38,246.452 446.12,268.574 C468.859,290.695 484.995,324.027 488.398,355.913 C491.802,387.798 481.952,413.345 462.589,422.852 z" fill-opacity="0" stroke="#000000" stroke-width="2.44" stroke-linecap="round" stroke-linejoin="round"/>
          </g>
          <g>
            <path d="M444.948,241.35 L424.266,242.909 L414.177,244.468 L410.142,245.508 L400.053,244.468 L393.999,244.468 L385.424,245.508 L368.778,255.383 L361.716,262.66 L358.185,271.495 L357.176,279.291 L351.627,278.772 L348.6,274.614 L352.131,261.62 L354.149,253.824 L361.716,240.31 L377.354,226.277 L436.373,226.277 L444.948,241.35 z" fill="#000000"/>
            <path d="M444.948,241.35 L424.266,242.909 L414.177,244.468 L410.142,245.508 L400.053,244.468 L393.999,244.468 L385.424,245.508 L368.778,255.383 L361.716,262.66 L358.185,271.495 L357.176,279.291 L351.627,278.772 L348.6,274.614 L352.131,261.62 L354.149,253.824 L361.716,240.31 L377.354,226.277 L436.373,226.277 L444.948,241.35 z" fill-opacity="0" stroke="#000000" stroke-width="0.603"/>
          </g>
          <g>
            <g>
              <path d="M375.348,73.98 L370.354,80.178 L365.378,89.208 L361.033,97.683 L358.823,105.698 C358.094,106.039 357.384,106.414 356.67,106.788 L356.67,97.682 L357.914,93.722 L361.033,86.396 L353.569,98.237 L350.45,105.01 L348.797,111.782 C335.43,121.907 325.783,138.244 322.841,157.312 C298.172,161.844 280.065,175.7 278.912,193.258 C277.393,216.38 305.844,237.212 342.429,239.764 C352.719,240.482 362.565,239.682 371.431,237.64 C374.372,238.175 377.387,238.444 380.455,238.444 C386.781,238.444 392.867,237.261 398.576,235.077 C409.478,240.888 423.316,243.789 438.105,242.519 C470.682,239.72 495.527,217.767 493.564,193.507 C491.734,170.892 467.25,154.217 437.548,154.328 C434.205,137.081 425.343,122.303 413.262,112.681 L411.721,107.381 L410.087,101.815 L407.933,94.583 L406.856,100.705 L404.851,106.329 L404.684,106.195 L404.684,102.369 L404.145,95.693 L403.069,88.442 L400.896,94.583 L399.819,99.041 L398.315,101.222 L396.496,99.806 L395.252,88.079 L393.377,80.752 L392.764,85.267 L386.544,93.722 L386.544,84.693 L385.913,78.495 L384.669,84.138 L380.324,90.336 L374.717,95.98 L370.985,91.465 L370.985,84.138 L375.348,73.98 z" fill="#FFFFFF"/>
              <path d="M375.348,73.98 L370.354,80.178 L365.378,89.208 L361.033,97.683 L358.823,105.698 C358.094,106.039 357.384,106.414 356.67,106.788 L356.67,97.682 L357.914,93.722 L361.033,86.396 L353.569,98.237 L350.45,105.01 L348.797,111.782 C335.43,121.907 325.783,138.244 322.841,157.312 C298.172,161.844 280.065,175.7 278.912,193.258 C277.393,216.38 305.844,237.212 342.429,239.764 C352.719,240.482 362.565,239.682 371.431,237.64 C374.372,238.175 377.387,238.444 380.455,238.444 C386.781,238.444 392.867,237.261 398.576,235.077 C409.478,240.888 423.316,243.789 438.105,242.519 C470.682,239.72 495.527,217.767 493.564,193.507 C491.734,170.892 467.25,154.217 437.548,154.328 C434.205,137.081 425.343,122.303 413.262,112.681 L411.721,107.381 L410.087,101.815 L407.933,94.583 L406.856,100.705 L404.851,106.329 L404.684,106.195 L404.684,102.369 L404.145,95.693 L403.069,88.442 L400.896,94.583 L399.819,99.041 L398.315,101.222 L396.496,99.806 L395.252,88.079 L393.377,80.752 L392.764,85.267 L386.544,93.722 L386.544,84.693 L385.913,78.495 L384.669,84.138 L380.324,90.336 L374.717,95.98 L370.985,91.465 L370.985,84.138 L375.348,73.98 z" fill-opacity="0" stroke="#000000" stroke-width="3.015" stroke-linecap="round" stroke-linejoin="round"/>
            </g>
            <g>
              <path d="M338.608,227.77 L338.827,252.104 C338.842,253.797 339.549,255.112 340.422,255.069 L357.62,254.227 C358.493,254.184 359.183,252.783 359.167,251.09 L358.995,232.323 C351.661,231.49 344.771,229.915 338.607,227.77 z" fill="#FFFFFF"/>
              <path d="M338.608,227.77 L338.827,252.104 C338.842,253.797 339.549,255.112 340.422,255.069 L357.62,254.227 C358.493,254.184 359.183,252.783 359.167,251.09 L358.995,232.323 C351.661,231.49 344.771,229.915 338.607,227.77 z" fill-opacity="0" stroke="#000000" stroke-width="2.767" stroke-linecap="round" stroke-linejoin="round"/>
            </g>
            <g>
              <path d="M387.108,232.05 C380.41,232.688 373.262,232.821 365.849,232.394 C365.292,232.362 364.731,232.337 364.178,232.299 L362.581,251.315 C362.444,252.952 363.524,254.443 364.995,254.643 L382.318,256.996 C383.789,257.197 385.095,256.032 385.233,254.395 L387.108,232.051 z" fill="#FFFFFF"/>
              <path d="M387.108,232.05 C380.41,232.688 373.262,232.821 365.849,232.394 C365.292,232.362 364.731,232.337 364.178,232.299 L362.581,251.315 C362.444,252.952 363.524,254.443 364.995,254.643 L382.318,256.996 C383.789,257.197 385.095,256.032 385.233,254.395 L387.108,232.051 z" fill-opacity="0" stroke="#000000" stroke-width="3.015" stroke-linecap="round" stroke-linejoin="round"/>
            </g>
          </g>
          <g>
            <path d="M286.148,176.8 L289.426,173.845 L295.572,172.156 L303.357,172.156 L312.371,176.167 L318.927,180.599 L323.843,183.977 L329.785,186.087 L328.146,169.623 L322,158.013 L314.42,159.702 L305.815,162.446 L298.235,166.457 L290.86,171.101 L287.787,174.267" fill="#000000"/>
            <path d="M286.148,176.8 L289.426,173.845 L295.572,172.156 L303.357,172.156 L312.371,176.167 L318.927,180.599 L323.843,183.977 L329.785,186.087 L328.146,169.623 L322,158.013 L314.42,159.702 L305.815,162.446 L298.235,166.457 L290.86,171.101 L287.787,174.267" fill-opacity="0" stroke="#000000" stroke-width="0.603"/>
          </g>
          <g>
            <g>
              <g>
                <g>
                  <path d="M355.272,156.117 C359.491,170.066 353.845,184.286 342.659,187.878 C331.474,191.471 318.986,183.076 314.766,169.127 C310.546,155.179 316.193,140.959 327.378,137.366 C338.563,133.774 351.052,142.169 355.272,156.117 z" fill="#FFFFFF"/>
                  <path d="M355.272,156.117 C359.491,170.066 353.845,184.286 342.659,187.878 C331.474,191.471 318.986,183.076 314.766,169.127 C310.546,155.179 316.193,140.959 327.378,137.366 C338.563,133.774 351.052,142.169 355.272,156.117 z" fill-opacity="0" stroke="#000000" stroke-width="1.985" stroke-linecap="round" stroke-linejoin="round"/>
                </g>
                <g>
                  <path d="M423.052,156.242 C421.686,170.431 414.412,182.933 403.987,189.009 C393.562,195.085 381.583,193.803 372.592,185.651 C363.601,177.498 358.974,163.722 360.466,149.547 C361.833,135.358 369.107,122.856 379.532,116.78 C389.957,110.704 401.935,111.986 410.927,120.138 C419.918,128.291 424.544,142.067 423.052,156.242 z" fill="#FFFFFF"/>
                  <path d="M423.052,156.242 C421.686,170.431 414.412,182.933 403.987,189.009 C393.562,195.085 381.583,193.803 372.592,185.651 C363.601,177.498 358.974,163.722 360.466,149.547 C361.833,135.358 369.107,122.856 379.532,116.78 C389.957,110.704 401.935,111.986 410.927,120.138 C419.918,128.291 424.544,142.067 423.052,156.242 z" fill-opacity="0" stroke="#000000" stroke-width="1.98" stroke-linecap="round" stroke-linejoin="round"/>
                </g>
              </g>
              <g>
                <path d="M384.787,207.573 C384.183,213.777 373.778,217.781 361.548,216.517 C349.317,215.253 339.891,209.199 340.495,202.995 C341.099,196.791 351.504,192.786 363.735,194.05 C375.966,195.315 385.391,201.369 384.787,207.573 z" fill="#000000"/>
                <path d="M384.787,207.573 C384.183,213.777 373.778,217.781 361.548,216.517 C349.317,215.253 339.891,209.199 340.495,202.995 C341.099,196.791 351.504,192.786 363.735,194.05 C375.966,195.315 385.391,201.369 384.787,207.573 z" fill-opacity="0" stroke="#000000" stroke-width="1.189" stroke-linecap="round" stroke-linejoin="round"/>
              </g>
              <g>
                <g>
                  <path d="M393.443,165.772 C393.465,170.147 391.386,174.201 387.993,176.396 C384.6,178.591 380.414,178.591 377.022,176.396 C373.629,174.201 371.549,170.147 371.571,165.772 C371.549,161.396 373.629,157.343 377.022,155.148 C380.414,152.953 384.6,152.953 387.993,155.148 C391.386,157.343 393.465,161.396 393.443,165.772 z" fill="#FFFFFF"/>
                  <path d="M393.443,165.772 C393.465,170.147 391.386,174.201 387.993,176.396 C384.6,178.591 380.414,178.591 377.022,176.396 C373.629,174.201 371.549,170.147 371.571,165.772 C371.549,161.396 373.629,157.343 377.022,155.148 C380.414,152.953 384.6,152.953 387.993,155.148 C391.386,157.343 393.465,161.396 393.443,165.772 z" fill-opacity="0" stroke="#000000" stroke-width="2.238" stroke-linecap="round" stroke-linejoin="round"/>
                </g>
                <g>
                  <path d="M348.187,168.237 C348.204,171.217 346.591,173.978 343.961,175.473 C341.33,176.968 338.084,176.968 335.454,175.473 C332.823,173.978 331.211,171.217 331.228,168.237 C331.211,165.257 332.823,162.497 335.454,161.002 C338.084,159.507 341.33,159.507 343.961,161.002 C346.591,162.497 348.204,165.257 348.187,168.237 z" fill="#FFFFFF"/>
                  <path d="M348.187,168.237 C348.204,171.217 346.591,173.978 343.961,175.473 C341.33,176.968 338.084,176.968 335.454,175.473 C332.823,173.978 331.211,171.217 331.228,168.237 C331.211,165.257 332.823,162.497 335.454,161.002 C338.084,159.507 341.33,159.507 343.961,161.002 C346.591,162.497 348.204,165.257 348.187,168.237 z" fill-opacity="0" stroke="#000000" stroke-width="2.388" stroke-linecap="round" stroke-linejoin="round"/>
                </g>
                <g>
                  <path d="M347.698,135.87 C337.599,120.476 317.513,116.061 302.554,126.064 C296.928,129.826 292.821,135.096 290.385,141.053 C292.816,137.43 295.916,134.256 299.675,131.742 C316.204,120.69 338.998,126.606 350.55,144.946 C351.452,146.379 352.262,147.841 352.975,149.333 C352.224,144.865 350.599,140.476 348.046,136.423 C347.929,136.237 347.817,136.052 347.698,135.87 z" fill="#FFFFFF"/>
                  <path d="M347.698,135.87 C337.599,120.476 317.513,116.061 302.554,126.064 C296.928,129.826 292.821,135.096 290.385,141.053 C292.816,137.43 295.916,134.256 299.675,131.742 C316.204,120.69 338.998,126.606 350.55,144.946 C351.452,146.379 352.262,147.841 352.975,149.333 C352.224,144.865 350.599,140.476 348.046,136.423 C347.929,136.237 347.817,136.052 347.698,135.87 z" fill-opacity="0" stroke="#000000" stroke-width="1.843" stroke-linecap="round" stroke-linejoin="round"/>
                </g>
                <g>
                  <path d="M420.638,90.78 C402.859,77.853 379.377,86.436 367.915,110.219 C363.604,119.164 361.601,128.998 361.697,138.534 C362.654,132.056 364.53,125.685 367.41,119.709 C380.076,93.429 407.134,84.876 427.803,100.62 C429.418,101.85 430.947,103.185 432.386,104.626 C429.557,99.317 425.829,94.734 421.262,91.255 C421.053,91.096 420.85,90.934 420.639,90.781 z" fill="#FFFFFF"/>
                  <path d="M420.638,90.78 C402.859,77.853 379.377,86.436 367.915,110.219 C363.604,119.164 361.601,128.998 361.697,138.534 C362.654,132.056 364.53,125.685 367.41,119.709 C380.076,93.429 407.134,84.876 427.803,100.62 C429.418,101.85 430.947,103.185 432.386,104.626 C429.557,99.317 425.829,94.734 421.262,91.255 C421.053,91.096 420.85,90.934 420.639,90.781 z" fill-opacity="0" stroke="#000000" stroke-width="2.42" stroke-linecap="round" stroke-linejoin="round"/>
                </g>
              </g>
            </g>
            <g>
              <path d="M400.658,200.34 L529.408,170.704" fill-opacity="0" stroke="#000000" stroke-width="1.508" stroke-linecap="round"/>
              <path d="M404.688,203.97 L534.968,182.602" fill-opacity="0" stroke="#000000" stroke-width="1.508" stroke-linecap="round"/>
              <path d="M406.028,210.56 L537.738,202.833" fill-opacity="0" stroke="#000000" stroke-width="1.508" stroke-linecap="round"/>
              <path d="M330.548,195.38 L200.568,172.117" fill-opacity="0" stroke="#000000" stroke-width="1.508" stroke-linecap="round"/>
              <path d="M326.608,199.98 L195.658,183.501" fill-opacity="0" stroke="#000000" stroke-width="1.508" stroke-linecap="round"/>
              <path d="M325.608,207.88 L193.788,202.568" fill-opacity="0" stroke="#000000" stroke-width="1.508" stroke-linecap="round"/>
            </g>
          </g>
        </g>
        <g>
          <path d="M233.638,299.01 L607.598,396.577 L335.208,507.097 L28.188,340.217 L233.628,299.013 z" fill="#FFFFFF"/>
          <path d="M233.638,299.01 L607.598,396.577 L335.208,507.097 L28.188,340.217 L233.628,299.013 z" fill-opacity="0" stroke="#0F0F0F" stroke-width="2.412" stroke-linecap="round" stroke-linejoin="round"/>
        </g>
        <g>
          <g>
            <g>
              <g>
                <g>
                  <path d="M116.858,309.67 L201.606,362.476 L307.646,331.4 L205.106,294.634 L116.855,309.67 z" fill="#FFFFFF"/>
                  <path d="M116.858,309.67 L201.606,362.476 L307.646,331.4 L205.106,294.634 L116.855,309.67 z" fill-opacity="0" stroke="#000000" stroke-width="2.412" stroke-linecap="round" stroke-linejoin="round"/>
                </g>
                <g>
                  <path d="M198.348,388.42 L307.838,361.675 L306.211,356.952 L301.444,351.636 L300.915,341.836 L302.501,335.847 L307.642,331.4 L196.472,354.817 L192.631,360.714 L192.275,370.012 L192.37,379.329 L198.348,388.42 z" fill="#FFFFFF"/>
                  <path d="M198.348,388.42 L307.838,361.675 L306.211,356.952 L301.444,351.636 L300.915,341.836 L302.501,335.847 L307.642,331.4 L196.472,354.817 L192.631,360.714 L192.275,370.012 L192.37,379.329 L198.348,388.42 z" fill-opacity="0" stroke="#000000" stroke-width="2.412" stroke-linecap="round" stroke-linejoin="round"/>
                </g>
                <g>
                  <path d="M196.788,388.19 L112.96,334.956 L109.778,323.651 L110.098,315.282 L114.409,308.938 L200.309,355.272 L197.512,357.487 L194.645,361.561 L194.466,366.21 L194.686,372.273 L195.773,379.302 L196.788,388.19 z" fill="#FFFFFF"/>
                  <path d="M196.788,388.19 L112.96,334.956 L109.778,323.651 L110.098,315.282 L114.409,308.938 L200.309,355.272 L197.512,357.487 L194.645,361.561 L194.466,366.21 L194.686,372.273 L195.773,379.302 L196.788,388.19 z" fill-opacity="0" stroke="#000000" stroke-width="2.412" stroke-linecap="round" stroke-linejoin="round"/>
                </g>
              </g>
              <g>
                <g>
                  <path d="M291.251,291.792 L201.005,333.826 L99.312,289.964 L205.365,266.037 L291.251,291.792 z" fill="#FFFFFF"/>
                  <path d="M291.251,291.792 L201.005,333.826 L99.312,289.964 L205.365,266.037 L291.251,291.792 z" fill-opacity="0" stroke="#000000" stroke-width="2.377" stroke-linecap="round" stroke-linejoin="round"/>
                </g>
                <g>
                  <path d="M201.231,359.985 L95.613,320 L99.759,317.555 L100.807,311.328 C100.973,297.7 101.139,303.293 101.306,299.276 L102.409,293.476 L99.306,289.963 L206.977,326.851 L210.109,333.177 L209.389,342.453 L208.218,351.692 L201.231,359.984 z" fill="#FFFFFF"/>
                  <path d="M201.231,359.985 L95.613,320 L99.759,317.555 L100.807,311.328 C100.973,297.7 101.139,303.293 101.306,299.276 L102.409,293.476 L99.306,289.963 L206.977,326.851 L210.109,333.177 L209.389,342.453 L208.218,351.692 L201.231,359.984 z" fill-opacity="0" stroke="#000000" stroke-width="2.377" stroke-linecap="round" stroke-linejoin="round"/>
                </g>
                <g>
                  <path d="M202.152,359.944 L292.197,317.371 L296.662,306.537 L297.311,298.189 L293.764,291.361 L203.122,326.829 L205.146,330.053 L205.869,335.642 L205.674,340.11 L205.417,345.762 L205.015,354.311 L202.153,359.945 z" fill="#FFFFFF"/>
                  <path d="M202.152,359.944 L292.197,317.371 L296.662,306.537 L297.311,298.189 L293.764,291.361 L203.122,326.829 L205.146,330.053 L205.869,335.642 L205.674,340.11 L205.417,345.762 L205.015,354.311 L202.153,359.945 z" fill-opacity="0" stroke="#000000" stroke-width="2.377" stroke-linecap="round" stroke-linejoin="round"/>
                </g>
              </g>
              <g>
                <g>
                  <path d="M103.408,261.56 L187.46,301.494 L295.98,285.835 L194,255.889 L103.411,261.56 z" fill="#FFFFFF"/>
                  <path d="M103.408,261.56 L187.46,301.494 L295.98,285.835 L194,255.889 L103.411,261.56 z" fill-opacity="0" stroke="#000000" stroke-width="2.412" stroke-linecap="round" stroke-linejoin="round"/>
                </g>
                <g>
                  <path d="M186.248,319.08 L293.538,302.093 L294.28,303.075 L289.576,299.24 L289.154,292.576 L290.8,288.598 L288.869,283.283 L184.739,296.229 C183.44,297.497 185.446,297.403 180.841,300.034 L180.386,306.314 L180.381,312.629 L186.254,319.08 z" fill="#FFFFFF"/>
                  <path d="M186.248,319.08 L293.538,302.093 L294.28,303.075 L289.576,299.24 L289.154,292.576 L290.8,288.598 L288.869,283.283 L184.739,296.229 C183.44,297.497 185.446,297.403 180.841,300.034 L180.386,306.314 L180.381,312.629 L186.254,319.08 z" fill-opacity="0" stroke="#000000" stroke-width="2.412" stroke-linecap="round" stroke-linejoin="round"/>
                </g>
                <g>
                  <path d="M186.018,318.16 L101.566,278.663 L99.832,272.384 L100.242,264.857 L103.456,261.454 L188.562,296.721 L185.746,298.083 L184.162,301.554 L183.604,304.864 L183.262,309.151 L183.611,313.795 L186.018,318.161 z" fill="#FFFFFF"/>
                  <path d="M186.018,318.16 L101.566,278.663 L99.832,272.384 L100.242,264.857 L103.456,261.454 L188.562,296.721 L185.746,298.083 L184.162,301.554 L183.604,304.864 L183.262,309.151 L183.611,313.795 L186.018,318.161 z" fill-opacity="0" stroke="#000000" stroke-width="2.412" stroke-linecap="round" stroke-linejoin="round"/>
                </g>
                <g>
                  <path d="M246.858,261.46 L184.777,274.317 L122.588,241.627 L198.557,236.979 L246.858,261.46 z" fill="#FFFFFF"/>
                  <path d="M246.858,261.46 L184.777,274.317 L122.588,241.627 L198.557,236.979 L246.858,261.46 z" fill-opacity="0" stroke="#000000" stroke-width="2.412" stroke-linecap="round" stroke-linejoin="round"/>
                </g>
                <g>
                  <path d="M181.758,291.12 L122.544,258.674 L124.499,256.182 L126.163,253.882 L126.509,248.905 L125.785,245.119 L122.258,240.945 L183.504,272.749 L186.276,277.891 L185.907,281.703 L185.592,286.813 L181.758,291.12 z" fill="#FFFFFF"/>
                  <path d="M181.758,291.12 L122.544,258.674 L124.499,256.182 L126.163,253.882 L126.509,248.905 L125.785,245.119 L122.258,240.945 L183.504,272.749 L186.276,277.891 L185.907,281.703 L185.592,286.813 L181.758,291.12 z" fill-opacity="0" stroke="#000000" stroke-width="2.412" stroke-linecap="round" stroke-linejoin="round"/>
                </g>
                <g>
                  <path d="M182.258,290.57 L246.133,276.456 L248.562,271.392 L248.161,265.886 L246.85,261.424 L183.797,272.837 L185.203,275.81 L186.105,278.181 L186.748,281.621 L185.206,284.8 L184.532,287.403 L182.259,290.569 z" fill="#FFFFFF"/>
                  <path d="M182.258,290.57 L246.133,276.456 L248.562,271.392 L248.161,265.886 L246.85,261.424 L183.797,272.837 L185.203,275.81 L186.105,278.181 L186.748,281.621 L185.206,284.8 L184.532,287.403 L182.259,290.569 z" fill-opacity="0" stroke="#000000" stroke-width="2.412" stroke-linecap="round" stroke-linejoin="round"/>
                </g>
              </g>
            </g>
            <g>
              <path d="M283.508,357.43 L352.466,429.616 L355.865,438.094 L360.649,441.637 L375.725,438.155 L460.72,412.31 L478.922,276.18 L456.341,269.76 L383.036,279.412 L371.382,283.61 L369.319,286.426 L369.33,282.898 L359.76,276.518 L324.874,263.003 L272.193,245.2 L262.598,247.992 L283.509,357.432 z" fill="#FFFFFF"/>
              <path d="M283.508,357.43 L352.466,429.616 L355.865,438.094 L360.649,441.637 L375.725,438.155 L460.72,412.31 L478.922,276.18 L456.341,269.76 L383.036,279.412 L371.382,283.61 L369.319,286.426 L369.33,282.898 L359.76,276.518 L324.874,263.003 L272.193,245.2 L262.598,247.992 L283.509,357.432 z" fill-opacity="0" stroke="#000000" stroke-width="1.206"/>
            </g>
            <g>
              <path d="M377.528,290.49 L482.358,272.468 L464.824,414.248 L373.666,440.074 L377.526,290.494 z" fill="#FFFFFF"/>
              <path d="M377.528,290.49 L482.358,272.468 L464.824,414.248 L373.666,440.074 L377.526,290.494 z" fill-opacity="0" stroke="#000000" stroke-width="2.412"/>
            </g>
            <g>
              <path d="M362.788,288.54 L372.253,289.74 L368.129,442.37 L360.241,441.147 L362.788,288.547 z" fill="#FFFFFF"/>
              <path d="M362.788,288.54 L372.253,289.74 L368.129,442.37 L360.241,441.147 L362.788,288.547 z" fill-opacity="0" stroke="#000000" stroke-width="2.058"/>
            </g>
            <g>
              <path d="M259.868,244.97 L359.045,287.614 L355.868,437.904 L279.395,359.344 L259.868,244.974 z" fill="#FFFFFF"/>
              <path d="M259.868,244.97 L359.045,287.614 L355.868,437.904 L279.395,359.344 L259.868,244.974 z" fill-opacity="0" stroke="#000000" stroke-width="2.412"/>
            </g>
          </g>
          <g>
            <path d="M278.648,314.16 L346.343,364.827 L346.982,388.515 L281.203,328.636 L278.648,314.16 z" fill-opacity="0" stroke="#000000" stroke-width="1.206"/>
            <path d="M309.308,277.97 L349.542,295.736 L348.903,346.403 L310.585,318.108 L309.308,277.969 z" fill-opacity="0" stroke="#000000" stroke-width="1.206"/>
          </g>
          <g>
            <g>
              <g>
                <path d="M259.23,321.11 C251.462,316.028 245.816,307.479 244.431,298.701 C243.046,289.923 246.135,282.26 252.526,278.618 C258.917,274.975 267.632,275.91 275.369,281.067 C283.136,286.149 288.782,294.698 290.167,303.476 C291.552,312.254 288.463,319.917 282.072,323.559 C275.681,327.202 266.966,326.267 259.23,321.11 z" fill="#FFFFFF"/>
                <path d="M259.23,321.11 C251.462,316.028 245.816,307.479 244.431,298.701 C243.046,289.923 246.135,282.26 252.526,278.618 C258.917,274.975 267.632,275.91 275.369,281.067 C283.136,286.149 288.782,294.698 290.167,303.476 C291.552,312.254 288.463,319.917 282.072,323.559 C275.681,327.202 266.966,326.267 259.23,321.11 z" fill-opacity="0" stroke="#000000" stroke-width="2.79" stroke-linecap="round" stroke-linejoin="round"/>
              </g>
              <g>
                <g>
                  <path d="M500.9,316.871 C505.63,331.494 495.247,347.409 477.71,352.419 C460.173,357.428 442.121,349.635 437.391,335.012 C432.662,320.389 443.044,304.474 460.582,299.465 C478.119,294.455 496.17,302.248 500.9,316.871 z" fill="#FFFFFF"/>
                  <path d="M500.9,316.871 C505.63,331.494 495.247,347.409 477.71,352.419 C460.173,357.428 442.121,349.635 437.391,335.012 C432.662,320.389 443.044,304.474 460.582,299.465 C478.119,294.455 496.17,302.248 500.9,316.871 z" fill-opacity="0" stroke="#000000" stroke-width="3.097" stroke-linecap="round" stroke-linejoin="round"/>
                </g>
                <g>
                  <path d="M376.205,201.147 C376.513,203.646 373.161,205.464 368.719,205.208 C364.277,204.952 360.426,202.718 360.118,200.219 C359.811,197.72 363.163,195.902 367.605,196.158 C372.047,196.415 375.898,198.649 376.205,201.147 z" fill="#FFFFFF"/>
                  <path d="M376.205,201.147 C376.513,203.646 373.161,205.464 368.719,205.208 C364.277,204.952 360.426,202.718 360.118,200.219 C359.811,197.72 363.163,195.902 367.605,196.158 C372.047,196.415 375.898,198.649 376.205,201.147 z" fill-opacity="0" stroke="#000000" stroke-width="1.472" stroke-linecap="round" stroke-linejoin="round"/>
                </g>
              </g>
            </g>
            <g>
              <path d="M344.677,168.146 C344.688,169.873 343.724,171.472 342.153,172.338 C340.581,173.204 338.642,173.204 337.071,172.338 C335.499,171.472 334.536,169.873 334.546,168.146 C334.536,166.42 335.499,164.82 337.071,163.954 C338.642,163.088 340.581,163.088 342.153,163.954 C343.724,164.82 344.688,166.42 344.677,168.146 z" fill="#000000"/>
              <path d="M344.677,168.146 C344.688,169.873 343.724,171.472 342.153,172.338 C340.581,173.204 338.642,173.204 337.071,172.338 C335.499,171.472 334.536,169.873 334.546,168.146 C334.536,166.42 335.499,164.82 337.071,163.954 C338.642,163.088 340.581,163.088 342.153,163.954 C343.724,164.82 344.688,166.42 344.677,168.146 z" fill-opacity="0" stroke="#000000" stroke-width="1.427" stroke-linecap="round" stroke-linejoin="round"/>
            </g>
            <g>
              <path d="M388.889,165.403 C388.903,168.127 387.596,170.652 385.465,172.019 C383.333,173.385 380.703,173.385 378.572,172.019 C376.44,170.652 375.134,168.127 375.147,165.403 C375.134,162.678 376.44,160.153 378.572,158.787 C380.703,157.42 383.333,157.42 385.465,158.787 C387.596,160.153 388.903,162.678 388.889,165.403 z" fill="#000000"/>
              <path d="M388.889,165.403 C388.903,168.127 387.596,170.652 385.465,172.019 C383.333,173.385 380.703,173.385 378.572,172.019 C376.44,170.652 375.134,168.127 375.147,165.403 C375.134,162.678 376.44,160.153 378.572,158.787 C380.703,157.42 383.333,157.42 385.465,158.787 C387.596,160.153 388.903,162.678 388.889,165.403 z" fill-opacity="0" stroke="#000000" stroke-width="1.406" stroke-linecap="round" stroke-linejoin="round"/>
            </g>
            <g>
              <g>
                <path d="M394.101,164.204 C394.113,166.118 393.001,167.893 391.188,168.853 C389.375,169.814 387.138,169.814 385.326,168.853 C383.513,167.893 382.401,166.118 382.413,164.204 C382.401,162.289 383.513,160.515 385.326,159.554 C387.138,158.593 389.375,158.593 391.188,159.554 C393.001,160.515 394.113,162.289 394.101,164.204 z" fill="#FFFFFF"/>
                <path d="M394.101,164.204 C394.113,166.118 393.001,167.893 391.188,168.853 C389.375,169.814 387.138,169.814 385.326,168.853 C383.513,167.893 382.401,166.118 382.413,164.204 C382.401,162.289 383.513,160.515 385.326,159.554 C387.138,158.593 389.375,158.593 391.188,159.554 C393.001,160.515 394.113,162.289 394.101,164.204 z" fill-opacity="0" stroke="#000000" stroke-width="1.196" stroke-linecap="round" stroke-linejoin="round"/>
              </g>
              <g>
                <path d="M349.956,166.188 C349.966,167.65 349.07,169.004 347.609,169.737 C346.148,170.47 344.345,170.47 342.883,169.737 C341.422,169.004 340.527,167.65 340.536,166.188 C340.527,164.726 341.422,163.372 342.883,162.639 C344.345,161.906 346.148,161.906 347.609,162.639 C349.07,163.372 349.966,164.726 349.956,166.188 z" fill="#FFFFFF"/>
                <path d="M349.956,166.188 C349.966,167.65 349.07,169.004 347.609,169.737 C346.148,170.47 344.345,170.47 342.883,169.737 C341.422,169.004 340.527,167.65 340.536,166.188 C340.527,164.726 341.422,163.372 342.883,162.639 C344.345,161.906 346.148,161.906 347.609,162.639 C349.07,163.372 349.966,164.726 349.956,166.188 z" fill-opacity="0" stroke="#000000" stroke-width="1.327" stroke-linecap="round" stroke-linejoin="round"/>
              </g>
            </g>
          </g>
        </g>
      </g>
      <g>
        <g>
          <text transform="matrix(0.755, -0.354, 0.485, 1.097, 340.902, 37.849)">
            <tspan x="-12.368" y="27" font-family="Arial-Black" font-size="71.28" fill="#000000">!</tspan>
          </text>
          <text transform="matrix(0.755, -0.354, 0.485, 1.097, 379.487, 29.428)"/>
        </g>
        <g>
          <text transform="matrix(0.805, 0, 0, 1.242, 379.086, 29.378)">
            <tspan x="-21.544" y="26.5" font-family="Arial-Black" font-size="68.902" fill="#000000">?</tspan>
          </text>
          <text transform="matrix(0.805, 0, 0, 1.242, 389.885, 29.378)"/>
        </g>
        <g>
          <text transform="matrix(0.761, 0.341, -0.467, 1.105, 414.941, 36.615)">
            <tspan x="-12.368" y="27" font-family="Arial-Black" font-size="71.28" fill="#000000">!</tspan>
          </text>
          <text transform="matrix(0.761, 0.341, -0.467, 1.105, 453.655, 44.723)"/>
        </g>
      </g>
      <g>
        <g>
          <g>
            <g>
              <path d="M290.148,310.21 L289.509,318.764 L286.316,325.344 L281.207,332.583 L278.014,335.873 L274.821,337.189 L272.905,324.687 L276.737,324.687 L282.484,322.713 L286.316,318.764 L288.871,314.816 L290.148,310.21 z" fill="#000000"/>
              <path d="M290.148,310.21 L289.509,318.764 L286.316,325.344 L281.207,332.583 L278.014,335.873 L274.821,337.189 L272.905,324.687 L276.737,324.687 L282.484,322.713 L286.316,318.764 L288.871,314.816 L290.148,310.21 z" fill-opacity="0" stroke="#000000" stroke-width="0.603"/>
            </g>
            <g>
              <path d="M437.038,335.87 L440.87,346.398 L444.063,352.978 L449.172,358.242 L454.92,362.19 L462.583,365.48 L468.331,367.455 L470.247,367.455 L472.163,353.637 L461.306,353.637 L451.726,350.346 L445.34,346.398 L440.231,341.134 L437.038,335.87 z" fill="#000000"/>
              <path d="M437.038,335.87 L440.87,346.398 L444.063,352.978 L449.172,358.242 L454.92,362.19 L462.583,365.48 L468.331,367.455 L470.247,367.455 L472.163,353.637 L461.306,353.637 L451.726,350.346 L445.34,346.398 L440.231,341.134 L437.038,335.87 z" fill-opacity="0" stroke="#000000" stroke-width="0.603"/>
            </g>
          </g>
          <g>
            <g>
              <g>
                <path d="M405.241,312.482 C407.329,309.952 411.829,309.807 415.293,312.158 C418.756,314.51 419.872,318.468 417.785,320.998 C415.698,323.529 411.198,323.674 407.734,321.322 C404.27,318.97 403.154,315.013 405.241,312.482 z" fill="#FFFFFF"/>
                <path d="M405.241,312.482 C407.329,309.952 411.829,309.807 415.293,312.158 C418.756,314.51 419.872,318.468 417.785,320.998 C415.698,323.529 411.198,323.674 407.734,321.322 C404.27,318.97 403.154,315.013 405.241,312.482 z" fill-opacity="0" stroke="#000000" stroke-width="1.182" stroke-linecap="round" stroke-linejoin="round"/>
              </g>
              <g>
                <path d="M429.989,323.773 L418.204,329.541 L403.581,329.939 L396.597,322.978 L399.653,308.856 L404.454,304.68 L408.601,316.016 L417.112,320.989 L426.933,320.392 L429.989,323.773 z" fill="#FFFFFF"/>
                <path d="M429.989,323.773 L418.204,329.541 L403.581,329.939 L396.597,322.978 L399.653,308.856 L404.454,304.68 L408.601,316.016 L417.112,320.989 L426.933,320.392 L429.989,323.773 z" fill-opacity="0" stroke="#000000" stroke-width="1.182"/>
              </g>
            </g>
            <g>
              <path d="M412.53,322.58 L403.582,329.74 L396.598,322.779 L404.455,315.221 L412.53,322.58 z" fill-opacity="0" stroke="#000000" stroke-width="1.182"/>
              <g>
                <path d="M411.655,323.577 L430.208,323.375 L430.208,308.659 L417.765,299.708 L404.454,304.478 L403.362,316.014 L411.655,323.577 z M418.806,319.373 C416.88,319.415 414.777,318.816 412.95,317.569 C409.236,315.037 408.041,310.771 410.278,308.046 C412.516,305.321 417.345,305.167 421.059,307.699 C424.772,310.231 425.968,314.497 423.73,317.222 C422.594,318.606 420.794,319.33 418.806,319.373 z" fill="#FFFFFF"/>
                <path d="M411.655,323.577 L430.208,323.375 L430.208,308.659 L417.765,299.708 L404.454,304.478 L403.362,316.014 L411.655,323.577 z M418.806,319.373 C416.88,319.415 414.777,318.816 412.95,317.569 C409.236,315.037 408.041,310.771 410.278,308.046 C412.516,305.321 417.345,305.167 421.059,307.699 C424.772,310.231 425.968,314.497 423.73,317.222 C422.594,318.606 420.794,319.33 418.806,319.373 z" fill-opacity="0" stroke="#000000" stroke-width="1.182"/>
              </g>
            </g>
          </g>
          <g>
            <g>
              <g>
                <path d="M395.418,358.551 C395.439,355.411 399.417,352.415 404.303,351.858 C409.19,351.301 413.135,353.395 413.114,356.534 C413.094,359.673 409.116,362.67 404.229,363.227 C399.342,363.784 395.397,361.69 395.418,358.551 z" fill="#FFFFFF"/>
                <path d="M395.418,358.551 C395.439,355.411 399.417,352.415 404.303,351.858 C409.19,351.301 413.135,353.395 413.114,356.534 C413.094,359.673 409.116,362.67 404.229,363.227 C399.342,363.784 395.397,361.69 395.418,358.551 z" fill-opacity="0" stroke="#000000" stroke-width="1.388" stroke-linecap="round" stroke-linejoin="round"/>
              </g>
              <g>
                <path d="M426.249,350.658 L419.821,362.332 L406.84,372.017 L395.344,371.563 L387.659,359.569 L388.924,353.516 L401.086,358.901 L412.496,356.96 L420.97,350.221 L426.248,350.658 z" fill="#FFFFFF"/>
                <path d="M426.249,350.658 L419.821,362.332 L406.84,372.017 L395.344,371.563 L387.659,359.569 L388.924,353.516 L401.086,358.901 L412.496,356.96 L420.97,350.221 L426.248,350.658 z" fill-opacity="0" stroke="#000000" stroke-width="1.315"/>
              </g>
            </g>
            <g>
              <path d="M409.514,361.036 L406.694,371.875 L395.197,371.422 L396.732,361.002 L409.514,361.036 z" fill-opacity="0" stroke="#000000" stroke-width="1.315"/>
              <g>
                <path d="M409.459,362.307 L426.153,350.234 L415.253,339.782 L397.326,341.425 L388.774,353.373 L396.328,362.267 L409.458,362.307 z M412.837,354.723 C411.119,355.992 408.767,356.918 406.184,357.208 C400.937,357.797 396.692,355.535 396.705,352.161 C396.718,348.787 400.988,345.572 406.235,344.983 C411.482,344.394 415.727,346.655 415.714,350.03 C415.708,351.743 414.61,353.414 412.837,354.723 z" fill="#FFFFFF"/>
                <path d="M409.459,362.307 L426.153,350.234 L415.253,339.782 L397.326,341.425 L388.774,353.373 L396.328,362.267 L409.458,362.307 z M412.837,354.723 C411.119,355.992 408.767,356.918 406.184,357.208 C400.937,357.797 396.692,355.535 396.705,352.161 C396.718,348.787 400.988,345.572 406.235,344.983 C411.482,344.394 415.727,346.655 415.714,350.03 C415.708,351.743 414.61,353.414 412.837,354.723 z" fill-opacity="0" stroke="#000000" stroke-width="1.315"/>
              </g>
            </g>
          </g>
          <g>
            <g>
              <g>
                <path d="M429.339,385.131 C428.454,382.879 430.835,380.103 434.657,378.93 C438.478,377.758 442.293,378.633 443.177,380.884 C444.061,383.136 441.68,385.912 437.859,387.085 C434.037,388.258 430.223,387.383 429.339,385.131 z" fill="#FFFFFF"/>
                <path d="M429.339,385.131 C428.454,382.879 430.835,380.103 434.657,378.93 C438.478,377.758 442.293,378.633 443.177,380.884 C444.061,383.136 441.68,385.912 437.859,387.085 C434.037,388.258 430.223,387.383 429.339,385.131 z" fill-opacity="0" stroke="#000000" stroke-width="1.128" stroke-linecap="round" stroke-linejoin="round"/>
              </g>
              <g>
                <path d="M452.191,374.596 L450.305,383.975 L442.509,392.967 L433.013,394.463 L423.309,387.089 L422.603,382.553 L434.056,384.485 L442.795,381.287 L447.765,375.119 L452.191,374.596 z" fill="#FFFFFF"/>
                <path d="M452.191,374.596 L450.305,383.975 L442.509,392.967 L433.013,394.463 L423.309,387.089 L422.603,382.553 L434.056,384.485 L442.795,381.287 L447.765,375.119 L452.191,374.596 z" fill-opacity="0" stroke="#000000" stroke-width="0.97"/>
              </g>
            </g>
            <g>
              <path d="M441.536,384.679 L442.349,392.889 L432.853,394.385 L431.113,386.679 L441.536,384.679 z" fill-opacity="0" stroke="#000000" stroke-width="0.97"/>
              <g>
                <path d="M441.856,385.598 L451.991,374.307 L440.111,368.547 L425.978,372.563 L422.44,382.474 L431.146,387.649 L441.855,385.598 z M442.431,379.631 C441.396,380.812 439.745,381.848 437.724,382.464 C433.619,383.717 429.511,382.77 428.553,380.351 C427.596,377.932 430.152,374.953 434.258,373.701 C438.363,372.448 442.471,373.395 443.428,375.814 C443.915,377.042 443.5,378.413 442.432,379.631 z" fill="#FFFFFF"/>
                <path d="M441.856,385.598 L451.991,374.307 L440.111,368.547 L425.978,372.563 L422.44,382.474 L431.146,387.649 L441.855,385.598 z M442.431,379.631 C441.396,380.812 439.745,381.848 437.724,382.464 C433.619,383.717 429.511,382.77 428.553,380.351 C427.596,377.932 430.152,374.953 434.258,373.701 C438.363,372.448 442.471,373.395 443.428,375.814 C443.915,377.042 443.5,378.413 442.432,379.631 z" fill-opacity="0" stroke="#000000" stroke-width="0.97"/>
              </g>
            </g>
          </g>
          <g>
            <g>
              <path d="M280.568,371.41 L278.652,409.575 L269.711,411.549 L263.325,418.129 L260.77,427.341 L264.602,437.212 L275.459,447.082 L275.459,452.346" fill-opacity="0" stroke="#000000" stroke-width="0.603"/>
              <path d="M465.138,430.1 L469.517,460.459" fill-opacity="0" stroke="#000000" stroke-width="0.603"/>
            </g>
            <path d="M373.168,459.05 L373.807,495.562" fill-opacity="0" stroke="#000000" stroke-width="1"/>
            <path d="M368.058,457.74 L367.419,497.275" fill-opacity="0" stroke="#000000" stroke-width="1"/>
            <path d="M359.758,454.45 L358.481,502.485" fill-opacity="0" stroke="#000000" stroke-width="1"/>
            <path d="M355.288,453.13 L351.159,498.579" fill-opacity="0" stroke="#000000" stroke-width="1"/>
            <g>
              <path d="M111.948,342.4 C113.999,353.179 105.213,350.703 100.039,356.034 C96.388,359.796 101.106,366.631 100.039,371.031 C99.718,372.354 100.039,373.758 100.039,375.121" fill-opacity="0" stroke="#000000" stroke-width="0.603"/>
              <path d="M197.418,390.96 C195.043,392.821 193.675,397.828 193.675,404.457 C193.675,409.309 198.181,415.936 202.096,417.954 C206.805,420.38 202.915,426.269 202.096,430.487" fill-opacity="0" stroke="#000000" stroke-width="0.603"/>
            </g>
          </g>
          <g>
            <path d="M239.528,292.63 C224.246,294.558 208.964,296.486 193.681,298.414 C205.844,297.45 218.008,296.486 230.171,295.522 C218.943,298.736 207.715,301.949 196.488,305.163 C211.77,305.484 227.052,305.805 242.335,306.127 C243.934,311.008 241.56,318.134 235.94,318.524 C228.884,320.176 222.196,323.338 215.336,325.712 C221.855,323.741 228.342,321.641 234.85,319.623 C239.29,321.402 244.862,324.812 244.253,330.503 C244.645,336.118 237.178,340.158 235.806,342.333 C239.594,341.813 243.014,339.55 246.656,338.396 C251.81,336.492 257.158,338.618 262.097,340.073 C267.566,342.645 260.035,343.513 257.759,344.181 C245.132,347.564 232.506,350.946 219.879,354.329 C224.246,358.032 229.519,353.762 234.273,353.708 C240.055,352.843 246.112,350.414 251.871,352.714 C257.634,351.362 258.859,360.334 255.196,363.44 C250.783,367.686 244.311,367.713 238.947,370.028 C230.972,373.047 222.788,375.416 214.777,378.325 C236.438,373.861 258.099,369.397 279.761,364.934 C276.02,362.155 270.86,359.109 270.993,353.683 C272.18,346.342 270.74,338.907 269.722,331.631 C266.153,327.155 259.808,327.397 255.689,323.736 C247.815,320.553 244.034,311.956 241.182,304.352 C240.066,300.547 240.107,296.531 239.528,292.63 z" fill="#040404"/>
            <path d="M239.528,292.63 C224.246,294.558 208.964,296.486 193.681,298.414 C205.844,297.45 218.008,296.486 230.171,295.522 C218.943,298.736 207.715,301.949 196.488,305.163 C211.77,305.484 227.052,305.805 242.335,306.127 C243.934,311.008 241.56,318.134 235.94,318.524 C228.884,320.176 222.196,323.338 215.336,325.712 C221.855,323.741 228.342,321.641 234.85,319.623 C239.29,321.402 244.862,324.812 244.253,330.503 C244.645,336.118 237.178,340.158 235.806,342.333 C239.594,341.813 243.014,339.55 246.656,338.396 C251.81,336.492 257.158,338.618 262.097,340.073 C267.566,342.645 260.035,343.513 257.759,344.181 C245.132,347.564 232.506,350.946 219.879,354.329 C224.246,358.032 229.519,353.762 234.273,353.708 C240.055,352.843 246.112,350.414 251.871,352.714 C257.634,351.362 258.859,360.334 255.196,363.44 C250.783,367.686 244.311,367.713 238.947,370.028 C230.972,373.047 222.788,375.416 214.777,378.325 C236.438,373.861 258.099,369.397 279.761,364.934 C276.02,362.155 270.86,359.109 270.993,353.683 C272.18,346.342 270.74,338.907 269.722,331.631 C266.153,327.155 259.808,327.397 255.689,323.736 C247.815,320.553 244.034,311.956 241.182,304.352 C240.066,300.547 240.107,296.531 239.528,292.63 z" fill-opacity="0" stroke="#000000" stroke-width="0.603"/>
          </g>
        </g>
        <path d="M68.298,341.79 L-0.004,338.898 L344.316,546.168 L638.106,396.738 L560.447,396.738 L358.347,491.214 L68.297,341.784 z" fill="#FFFFFF"/>
      </g>
    </g>
  </g>
</svg>
